<svg xmlns="http://www.w3.org/2000/svg" viewBox="0 0 533.16 370.14"><defs><style>.a2ce6ec5-37f5-43b4-9c7a-66000318ecbf{fill:#192025;}</style></defs><g id="a88c1da7-0442-4111-b5a0-2c1b5e8efd38" data-name="Layer 2"><g id="f9f82e3a-718b-427a-9630-4bcc2ef9d815" data-name="Layer 1"><polygon class="a2ce6ec5-37f5-43b4-9c7a-66000318ecbf" points="246.29 178.52 224.16 174.58 230.24 192.26 228.13 221.84 232.35 231.98 251.58 231.98 249.26 221.84 241.66 217.86 251.58 199.87 246.29 178.52"/><polygon class="a2ce6ec5-37f5-43b4-9c7a-66000318ecbf" points="275.44 44.45 288.45 35.11 286.86 10.24 266.12 25.46 267.36 34.19 275.44 44.45"/><path class="a2ce6ec5-37f5-43b4-9c7a-66000318ecbf" d="M381.1,213.39,357.43,188l-40.56-29.16-24.07-59L312.56,65,326.5,54.26l16.68-4.43,2.69-9.47H331.64l-6.13-4.82,8.77-19.1,5.11-4.74-9.95-6.06,1-1.76L328,0,308.29,11.43,290.5,9.25l1.77,27.67-.12.08L274.73,49.52,263.85,35.7v-.08l-1-7.2-6,13.29-7.9,15.77-11.78,8.3L194.22,95.49l-5.58,3.06-7.84,4.55h-8.87l-3.38,6.77,2.53,2.53,5.07,1.69-8,17.47h0L163.86,141,158.41,153l-5.07,49-2.54,24.09,4.65,5.91H173.2l-2.12-10.14-5.73-3.62L176.15,188l29.92-26.54-5.87-5.36,3-3.17L221,168.79l1.12,1,46.07,7.85,27.75,2.71,13.31,14.5,4.12,12.2h22.85l-2.7-12.15-16.31-16.41-52.32-21.6,1.19-3.53,24.8,10.16L287,149l3.8-.55,4.78,16.78,22.3,9.89,18.21,17.81L339,204l15.1,6.42,4,11.41h24.3ZM303.68,16.08l4.52,3.48L297,21.9Z"/><path class="a2ce6ec5-37f5-43b4-9c7a-66000318ecbf" d="M47.76,296.79c0-6.79-2.16-11.89-6.41-15.14-4-3.07-10.14-4.55-18.78-4.55H0v55.52H18.61V317.31h1.95l11,15.31h23L40.21,313C44.24,310.29,47.76,305.42,47.76,296.79Zm-19.58,2.85s-1,.86-5.26.86H18.61v-6.66h4.52c4,0,5.14.66,5.34.79s.47.82.47,2.2C28.94,297.63,28.84,299.07,28.18,299.64Z"/><path class="a2ce6ec5-37f5-43b4-9c7a-66000318ecbf" d="M518.84,313c4-2.74,7.54-7.61,7.54-16.24,0-6.79-2.16-11.89-6.41-15.14-4-3.07-10.14-4.55-18.78-4.55H478.62v55.52h18.61V317.31h1.95l11,15.31h23Zm-12-13.39s-1,.86-5.26.86h-4.31v-6.66h4.53c4,0,5.13.66,5.33.79s.47.82.47,2.2C507.56,297.63,507.46,299.07,506.8,299.64Z"/><polygon class="a2ce6ec5-37f5-43b4-9c7a-66000318ecbf" points="425.47 332.62 468.76 332.62 468.76 315.6 444.08 315.6 444.08 315.48 444.08 313.19 444.08 312.1 468.7 312.1 468.7 297.56 444.08 297.56 444.08 296.52 444.08 294.18 468.7 294.18 468.76 294.18 468.76 277.1 425.47 277.1 425.47 332.62"/><path class="a2ce6ec5-37f5-43b4-9c7a-66000318ecbf" d="M114.13,293.91a33.93,33.93,0,0,0-3.3-5.89,28.45,28.45,0,0,0-3.44-3.89A29.68,29.68,0,0,0,86.29,276a29.68,29.68,0,0,0-21.1,8.13,28.3,28.3,0,0,0,0,40.83,29.69,29.69,0,0,0,21.1,8.14,29.69,29.69,0,0,0,21.1-8.14,27.06,27.06,0,0,0,8.7-20.41,28.29,28.29,0,0,0-2-10.64Zm-20.08,19a10.64,10.64,0,0,1-15.44,0,12.37,12.37,0,0,1,0-16.68,10.57,10.57,0,0,1,15.42,0,12.4,12.4,0,0,1,0,16.68Z"/><polygon class="a2ce6ec5-37f5-43b4-9c7a-66000318ecbf" points="121.48 293.48 121.48 293.92 135.52 293.9 135.52 332.62 154.13 332.62 154.13 293.9 168.17 293.9 168.17 277.1 121.48 277.1 121.48 293.48"/><polygon class="a2ce6ec5-37f5-43b4-9c7a-66000318ecbf" points="183.03 277.1 176.63 277.1 176.63 293.9 180.41 293.9 190.59 293.9 190.59 332.62 190.68 332.62 209.19 332.62 209.28 332.62 209.28 293.9 219.46 293.9 223.24 293.9 223.24 277.1 216.84 277.1 183.03 277.1"/><polygon class="a2ce6ec5-37f5-43b4-9c7a-66000318ecbf" points="394.76 277.1 382.94 277.1 376.15 277.1 376.15 332.62 415.89 332.62 415.89 315.53 394.76 315.53 394.76 277.1"/><polygon class="a2ce6ec5-37f5-43b4-9c7a-66000318ecbf" points="303.46 277.11 296.19 277.11 296.19 277.1 289.18 277.1 282.29 296.4 276.14 277.11 276.03 277.11 276.02 277.1 258.94 277.1 252.79 296.4 245.9 277.11 245.79 277.11 245.78 277.1 231.62 277.1 226.35 277.1 231.91 293.77 231.9 293.79 232.15 294.48 233.57 298.74 245.79 332.62 245.91 332.62 245.91 332.63 259.53 332.63 267.54 307.99 275.56 332.62 275.67 332.62 275.67 332.63 289.29 332.63 301.51 298.76 303.08 294.06 303.18 293.77 303.18 293.76 308.73 277.11 303.46 277.11"/><polygon class="a2ce6ec5-37f5-43b4-9c7a-66000318ecbf" points="367.86 277.1 350.68 277.1 342.1 291.38 333.53 277.1 324.27 277.1 312.8 277.1 312.06 277.1 319.92 289.15 332.8 310.93 332.8 332.62 351.41 332.62 351.41 310.93 371.77 277.1 371.41 277.1 367.86 277.1"/><path class="a2ce6ec5-37f5-43b4-9c7a-66000318ecbf" d="M101.09,352.92c-3.49,0-5.49,1.65-5.49,4.52v8.18c0,2.87,2,4.52,5.49,4.52s5.49-1.65,5.49-4.52V363h-4.27v2.82c0,.6-.18,1-1.13,1s-1.14-.35-1.14-1v-8.49c0-.61.19-1,1.14-1s1.13.38,1.13,1v2.25h4.27v-2.1C106.58,354.57,104.57,352.92,101.09,352.92Z"/><polygon class="a2ce6ec5-37f5-43b4-9c7a-66000318ecbf" points="121.18 353.1 116.74 353.1 116.74 369.96 126.61 369.96 126.61 366.58 121.18 366.58 121.18 353.1"/><polygon class="a2ce6ec5-37f5-43b4-9c7a-66000318ecbf" points="136.26 369.96 146.4 369.96 146.4 366.58 140.7 366.58 140.7 363.11 145.23 363.11 145.23 359.73 140.7 359.73 140.7 356.49 146.4 356.49 146.4 353.1 136.26 353.1 136.26 369.96"/><path class="a2ce6ec5-37f5-43b4-9c7a-66000318ecbf" d="M159.19,353.1,155.58,370h4.21l.57-2.85h3.11L164,370h4.5l-3.6-16.86ZM161,363.83l.89-4.46.89,4.46Z"/><polygon class="a2ce6ec5-37f5-43b4-9c7a-66000318ecbf" points="185.59 359.81 183.17 353.1 178.06 353.1 178.06 369.96 182.17 369.96 182.17 361.27 185.31 369.96 189.67 369.96 189.67 353.1 185.59 353.1 185.59 359.81"/><polygon class="a2ce6ec5-37f5-43b4-9c7a-66000318ecbf" points="209.49 369.96 219.62 369.96 219.62 366.58 213.92 366.58 213.92 363.11 218.45 363.11 218.45 359.73 213.92 359.73 213.92 356.49 219.62 356.49 219.62 353.1 209.49 353.1 209.49 369.96"/><polygon class="a2ce6ec5-37f5-43b4-9c7a-66000318ecbf" points="237.31 359.81 234.9 353.1 229.78 353.1 229.78 369.96 233.9 369.96 233.9 361.27 237.03 369.96 241.39 369.96 241.39 353.1 237.31 353.1 237.31 359.81"/><polygon class="a2ce6ec5-37f5-43b4-9c7a-66000318ecbf" points="251.91 369.96 262.05 369.96 262.05 366.58 256.35 366.58 256.35 363.11 260.88 363.11 260.88 359.73 256.35 359.73 256.35 356.49 262.05 356.49 262.05 353.1 251.91 353.1 251.91 369.96"/><path class="a2ce6ec5-37f5-43b4-9c7a-66000318ecbf" d="M283.28,367.48v-2.42a3.77,3.77,0,0,0-1.48-3.37,3.63,3.63,0,0,0,1.45-3.17v-1.23c0-2.82-1.78-4.19-5.46-4.19h-5.54V370h4.44v-6.4h.56c1.24,0,1.59.32,1.59,1.43v2.47a4.22,4.22,0,0,0,.35,2.16l.15.34h4.71l-.48-.85A3,3,0,0,1,283.28,367.48Zm-4.47-8.4c0,.71-.22,1.09-1.41,1.09h-.71v-3.68h1c.86,0,1.11.23,1.11,1Z"/><polygon class="a2ce6ec5-37f5-43b4-9c7a-66000318ecbf" points="320.04 359.11 317.93 353.1 313.24 353.1 317.67 364.29 317.67 369.96 322.12 369.96 322.12 364.29 326.55 353.1 322.16 353.1 320.04 359.11"/><path class="a2ce6ec5-37f5-43b4-9c7a-66000318ecbf" d="M350.84,353.1h-5.79V370h5.79c4.77,0,5.49-2.79,5.49-4.45v-8C356.33,355.89,355.61,353.1,350.84,353.1Zm1.05,12.52c0,.62-.18,1-1.11,1h-1.29V356.49h1.29c.93,0,1.11.33,1.11.95Z"/><path class="a2ce6ec5-37f5-43b4-9c7a-66000318ecbf" d="M377.62,367.48v-2.42a3.8,3.8,0,0,0-1.48-3.37,3.65,3.65,0,0,0,1.45-3.17v-1.23c0-2.82-1.79-4.19-5.46-4.19h-5.55V370H371v-6.4h.57c1.23,0,1.59.32,1.59,1.43v2.47a4.22,4.22,0,0,0,.35,2.16l.15.34h4.7l-.48-.85A3.08,3.08,0,0,1,377.62,367.48Zm-4.47-8.4c0,.71-.23,1.09-1.41,1.09H371v-3.68h1c.86,0,1.11.23,1.11,1Z"/><rect class="a2ce6ec5-37f5-43b4-9c7a-66000318ecbf" x="387.93" y="353.1" width="4.44" height="16.87"/><polygon class="a2ce6ec5-37f5-43b4-9c7a-66000318ecbf" points="410.42 359.81 408 353.1 402.89 353.1 402.89 369.96 407 369.96 407 361.27 410.14 369.96 414.5 369.96 414.5 353.1 410.42 353.1 410.42 359.81"/><polygon class="a2ce6ec5-37f5-43b4-9c7a-66000318ecbf" points="437.57 353.1 432.96 353.1 429.46 358.57 429.46 353.1 425.02 353.1 425.02 369.96 429.46 369.96 429.46 364.75 429.83 364.22 432.77 369.96 437.45 369.96 432.58 360.71 437.57 353.1"/><path class="a2ce6ec5-37f5-43b4-9c7a-66000318ecbf" d="M298.81,352.92c-3.49,0-5.49,1.65-5.49,4.52v8.18c0,2.87,2,4.52,5.49,4.52s5.49-1.65,5.49-4.52v-5.56h-5.76v3.39H300v2.33c0,.6-.18,1-1.14,1s-1.14-.35-1.14-1v-8.49c0-.61.2-1,1.14-1s1.14.38,1.14,1v.94h4.26v-.79C304.3,354.57,302.3,352.92,298.81,352.92Z"/><rect class="a2ce6ec5-37f5-43b4-9c7a-66000318ecbf" x="0.83" y="360.56" width="74.65" height="3.92"/><rect class="a2ce6ec5-37f5-43b4-9c7a-66000318ecbf" x="457.69" y="360.56" width="74.65" height="3.92"/></g></g></svg>